# xmcd
#
# Track frame offsets:
#	150
#	8222
#	15695
#	24895
#	36132
#	44670
#	57200
#	66470
#	76655
#	86527
#	95540
#	103772
#	113570
#	121980
#	134840
#	142820
#	151935
#	162650
#	170760
#	178727
#
# Disc length: 2517 seconds
#
# Revision: 1
# Processed by: cddbd v1.4PL0 Copyright (c) Steve Scherf et al.
# Submitted via: audiograbber 1.81.02
#
DISCID=0a09d314
DTITLE=Tex Williams - Western Swing Nostalgia
DYEAR=1900
DGENRE=Western Swing
TTITLE0=Don't Come Cryin' To Me
TTITLE1=Tell Me How Lonley Can You Get
TTITLE2=Blue Danube
TTITLE3=Dusty Skies
TTITLE4=Red Wing
TTITLE5=Cool Water
TTITLE6=Ragtime Accordion Joe
TTITLE7=The Covered Wagon Rolled Right Along
TTITLE8=Beethoven's Minuet
TTITLE9=My Adobe Hacienda
TTITLE10=Tulsa Trot
TTITLE11=Brother, Drop Dead
TTITLE12=Minor Boogie
TTITLE13=When My Blue Moon Turns To Gold Again
TTITLE14=Devil's Dream
TTITLE15=Between You And the Birds (And the Bees And Cupid)
TTITLE16=Kansas City Rag
TTITLE17=Caravan Rambler
TTITLE18=Slam My Door
TTITLE19=Close the Door Richard I Just Saw the Thing
EXTD=Bronco Buster CD 9041
EXTT0=
EXTT1=
EXTT2=
EXTT3=
EXTT4=
EXTT5=
EXTT6=
EXTT7=
EXTT8=
EXTT9=
EXTT10=
EXTT11=
EXTT12=
EXTT13=
EXTT14=
EXTT15=
EXTT16=
EXTT17=
EXTT18=
EXTT19=
PLAYORDER=
